<svg aria-hidden="true" style="position: absolute; width: 0; height: 0; overflow: hidden;" version="1.1" xmlns="http://www.w3.org/2000/svg" xmlns:xlink="http://www.w3.org/1999/xlink">
<defs>
<symbol id="icon-heart" viewBox="0 0 24 24">
<title>heart</title>
<path d="M21.5 3.9v0c-1.2-1.2-2.8-1.9-4.5-1.9v0c-1.7 0-3.4 0.7-4.6 1.9 0 0 0 0 0 0l-0.4 0.4-0.4-0.4c-1.2-1.2-2.8-1.9-4.6-1.9-1.7 0-3.3 0.7-4.5 1.9s-2 2.9-2 4.6 0.7 3.4 1.9 4.6l8.8 8.8c0.2 0.2 0.4 0.3 0.7 0.3s0.5-0.1 0.7-0.3l8.8-8.8c2.7-2.5 2.7-6.7 0.1-9.2zM20.1 11.7l-8.1 8.1-8.1-8.1c-1.8-1.8-1.8-4.6 0-6.4 0.8-0.9 2-1.3 3.1-1.3 1.2 0 2.3 0.4 3.2 1.3l1.1 1.1c0.4 0.4 1 0.4 1.4 0l1-1.1c0 0 0 0 0 0 0.9-0.8 2-1.3 3.3-1.3 0 0 0 0 0 0 1.2 0 2.3 0.5 3.2 1.3v0c0.8 0.9 1.3 2 1.3 3.2s-0.5 2.3-1.4 3.2z"></path>
</symbol>
<symbol id="icon-pause" viewBox="0 0 24 24">
<title>pause</title>
<path d="M10 3h-4c-0.6 0-1 0.4-1 1v16c0 0.6 0.4 1 1 1h4c0.6 0 1-0.4 1-1v-16c0-0.6-0.4-1-1-1zM9 19h-2v-14h2v14z"></path>
<path d="M18 3h-4c-0.6 0-1 0.4-1 1v16c0 0.6 0.4 1 1 1h4c0.6 0 1-0.4 1-1v-16c0-0.6-0.4-1-1-1zM17 19h-2v-14h2v14z"></path>
</symbol>
<symbol id="icon-play" viewBox="0 0 24 24">
<title>play</title>
<path d="M19.5 11.2l-14-9c-0.3-0.2-0.7-0.2-1 0-0.3 0.1-0.5 0.4-0.5 0.8v18c0 0.4 0.2 0.7 0.5 0.9 0.2 0.1 0.3 0.1 0.5 0.1s0.4-0.1 0.5-0.2l14-9c0.3-0.2 0.5-0.5 0.5-0.8s-0.2-0.7-0.5-0.8zM6 19.2v-14.4l11.2 7.2-11.2 7.2z"></path>
</symbol>
<symbol id="icon-plus" viewBox="0 0 24 24">
<title>plus</title>
<path d="M19 11h-6v-6c0-0.6-0.4-1-1-1s-1 0.4-1 1v6h-6c-0.6 0-1 0.4-1 1s0.4 1 1 1h6v6c0 0.6 0.4 1 1 1s1-0.4 1-1v-6h6c0.6 0 1-0.4 1-1s-0.4-1-1-1z"></path>
</symbol>
<symbol id="icon-search" viewBox="0 0 24 24">
<title>search</title>
<path d="M21.7 20.3l-3.7-3.7c1.2-1.5 2-3.5 2-5.6 0-5-4-9-9-9s-9 4-9 9c0 5 4 9 9 9 2.1 0 4.1-0.7 5.6-2l3.7 3.7c0.2 0.2 0.5 0.3 0.7 0.3s0.5-0.1 0.7-0.3c0.4-0.4 0.4-1 0-1.4zM4 11c0-3.9 3.1-7 7-7s7 3.1 7 7c0 1.9-0.8 3.7-2 4.9 0 0 0 0 0 0s0 0 0 0c-1.3 1.3-3 2-4.9 2-4 0.1-7.1-3-7.1-6.9z"></path>
</symbol>
<symbol id="icon-skip-back" viewBox="0 0 24 24">
<title>skip-back</title>
<path d="M19.4 3.1c-0.3-0.2-0.8-0.1-1.1 0.1l-10 8c-0.2 0.2-0.3 0.5-0.3 0.8s0.1 0.6 0.4 0.8l10 8c0.2 0.1 0.4 0.2 0.6 0.2 0.1 0 0.3 0 0.4-0.1 0.3-0.2 0.6-0.5 0.6-0.9v-16c0-0.4-0.2-0.7-0.6-0.9zM18 17.9l-7.4-5.9 7.4-5.9v11.8z"></path>
<path d="M5 4c-0.6 0-1 0.4-1 1v14c0 0.6 0.4 1 1 1s1-0.4 1-1v-14c0-0.6-0.4-1-1-1z"></path>
</symbol>
<symbol id="icon-skip-forward" viewBox="0 0 24 24">
<title>skip-forward</title>
<path d="M5.6 3.2c-0.3-0.2-0.7-0.3-1-0.1-0.4 0.2-0.6 0.5-0.6 0.9v16c0 0.4 0.2 0.7 0.6 0.9 0.1 0.1 0.3 0.1 0.4 0.1 0.2 0 0.4-0.1 0.6-0.2l10-8c0.2-0.2 0.4-0.5 0.4-0.8s-0.1-0.6-0.4-0.8l-10-8zM6 17.9v-11.8l7.4 5.9-7.4 5.9z"></path>
<path d="M19 4c-0.6 0-1 0.4-1 1v14c0 0.6 0.4 1 1 1s1-0.4 1-1v-14c0-0.6-0.4-1-1-1z"></path>
</symbol>
<symbol id="icon-trash-2" viewBox="0 0 24 24">
<title>trash-2</title>
<path d="M21 5h-4v-1c0-1.7-1.3-3-3-3h-4c-1.7 0-3 1.3-3 3v1h-4c-0.6 0-1 0.4-1 1s0.4 1 1 1h1v13c0 1.7 1.3 3 3 3h10c1.7 0 3-1.3 3-3v-13h1c0.6 0 1-0.4 1-1s-0.4-1-1-1zM9 4c0-0.6 0.4-1 1-1h4c0.6 0 1 0.4 1 1v1h-6v-1zM18 20c0 0.6-0.4 1-1 1h-10c-0.6 0-1-0.4-1-1v-13h12v13z"></path>
<path d="M10 10c-0.6 0-1 0.4-1 1v6c0 0.6 0.4 1 1 1s1-0.4 1-1v-6c0-0.6-0.4-1-1-1z"></path>
<path d="M14 10c-0.6 0-1 0.4-1 1v6c0 0.6 0.4 1 1 1s1-0.4 1-1v-6c0-0.6-0.4-1-1-1z"></path>
</symbol>
<symbol id="icon-volume-2" viewBox="0 0 24 24">
<title>volume-2</title>
<path d="M11.4 4.1c-0.3-0.2-0.8-0.1-1.1 0.1l-4.7 3.8h-3.6c-0.6 0-1 0.4-1 1v6c0 0.6 0.4 1 1 1h3.6l4.7 3.8c0.2 0.1 0.4 0.2 0.6 0.2 0.1 0 0.3 0 0.4-0.1 0.3-0.2 0.6-0.5 0.6-0.9v-14c0.1-0.4-0.1-0.7-0.5-0.9zM10 16.9l-3.4-2.7c-0.2-0.1-0.4-0.2-0.6-0.2h-3v-4h3c0.2 0 0.4-0.1 0.6-0.2l3.4-2.7v9.8z"></path>
<path d="M14.8 7.8c-0.4 0.4-0.4 1 0 1.4 1.6 1.6 1.6 4.1 0 5.7-0.4 0.4-0.4 1 0 1.4 0.2 0.2 0.5 0.3 0.7 0.3s0.5-0.1 0.7-0.3c2.3-2.3 2.3-6.1 0-8.5-0.3-0.4-1-0.4-1.4 0z"></path>
<path d="M19.8 4.2c-0.4-0.4-1-0.4-1.4 0s-0.4 1 0 1.4c3.5 3.5 3.5 9.2 0 12.7-0.4 0.4-0.4 1 0 1.4 0.2 0.2 0.5 0.3 0.7 0.3s0.5-0.1 0.7-0.3c4.3-4.2 4.3-11.2 0-15.5z"></path>
</symbol>
<symbol id="icon-volume-x" viewBox="0 0 24 24">
<title>volume-x</title>
<path d="M11.4 4.1c-0.3-0.2-0.8-0.1-1.1 0.1l-4.7 3.8h-3.6c-0.6 0-1 0.4-1 1v6c0 0.6 0.4 1 1 1h3.6l4.7 3.8c0.2 0.1 0.4 0.2 0.6 0.2 0.1 0 0.3 0 0.4-0.1 0.3-0.2 0.6-0.5 0.6-0.9v-14c0.1-0.4-0.1-0.7-0.5-0.9zM10 16.9l-3.4-2.7c-0.2-0.1-0.4-0.2-0.6-0.2h-3v-4h3c0.2 0 0.4-0.1 0.6-0.2l3.4-2.7v9.8z"></path>
<path d="M21.4 12l2.3-2.3c0.4-0.4 0.4-1 0-1.4s-1-0.4-1.4 0l-2.3 2.3-2.3-2.3c-0.4-0.4-1-0.4-1.4 0s-0.4 1 0 1.4l2.3 2.3-2.3 2.3c-0.4 0.4-0.4 1 0 1.4 0.2 0.2 0.5 0.3 0.7 0.3s0.5-0.1 0.7-0.3l2.3-2.3 2.3 2.3c0.2 0.2 0.5 0.3 0.7 0.3s0.5-0.1 0.7-0.3c0.4-0.4 0.4-1 0-1.4l-2.3-2.3z"></path>
</symbol>
</defs>
</svg>
